<svg xmlns="http://www.w3.org/2000/svg" viewBox="0 0 192 192" width="100%" height="100%">
  <defs>
    <radialGradient id="bgGrad192" cx="50%" cy="50%" r="50%">
      <stop offset="0%" stop-color="#1e1f24" />
      <stop offset="100%" stop-color="#0e1013" />
    </radialGradient>
    <linearGradient id="auroraGrad192" x1="0%" y1="0%" x2="100%" y2="100%">
      <stop offset="0%" stop-color="#4285F4" />
      <stop offset="30%" stop-color="#9b51e0" />
      <stop offset="70%" stop-color="#ea4335" />
      <stop offset="100%" stop-color="#fbbc05" />
    </linearGradient>
    <linearGradient id="axiomGrad192" x1="0%" y1="0%" x2="100%" y2="100%">
      <stop offset="0%" stop-color="#a8c7fa" />
      <stop offset="45%" stop-color="#d3e3fd" />
      <stop offset="80%" stop-color="#c58af9" />
      <stop offset="100%" stop-color="#f8a8d4" />
    </linearGradient>
    <filter id="glow192" x="-20%" y="-20%" width="140%" height="140%">
      <feGaussianBlur stdDeviation="6" result="blur" />
      <feComposite in="SourceGraphic" in2="blur" operator="over" />
    </filter>
  </defs>

  <rect width="192" height="192" rx="42" fill="url(#bgGrad192)" />
  <rect width="188" height="188" x="2" y="2" rx="40" fill="none" stroke="rgba(255,255,255,0.08)" stroke-width="1.5" />

  <g filter="url(#glow192)">
    <path d="M 96 24 
             C 96 63, 63 96, 24 96 
             C 63 96, 96 129, 96 168 
             C 96 129, 129 96, 168 96 
             C 129 96, 96 63, 96 24 Z" 
          fill="url(#auroraGrad192)" />

    <path d="M 96 45 
             C 96 73, 73 96, 45 96 
             C 73 96, 96 119, 96 147 
             C 96 119, 119 96, 147 96 
             C 119 96, 96 73, 96 45 Z" 
          fill="url(#axiomGrad192)" opacity="0.9" />

    <circle cx="96" cy="96" r="10" fill="#ffffff" opacity="0.95" />
  </g>
</svg>
